<svg xmlns="http://www.w3.org/2000/svg" aria-hidden="true" style="position:absolute;width:0;height:0;overflow:hidden"><defs><symbol id="close" viewBox="0 0 32 32"><path d="M6.767 7.043 7.71 6.1l18.856 18.856-.943.943L6.767 7.043z"/><path d="m7.71 25.899-.943-.943L25.623 6.1l.943.943L7.71 25.899z"/></symbol><symbol id="phone" viewBox="0 0 32 32"><path d="M26.68 20.507a15.26 15.26 0 0 1-4.707-.747 1.303 1.303 0 0 0-1.347.32l-2.093 2.627c-3.773-1.8-7.307-5.2-9.187-9.107l2.6-2.213a1.36 1.36 0 0 0 .32-1.36 14.882 14.882 0 0 1-.747-4.707c0-.72-.6-1.32-1.32-1.32H5.586c-.72 0-1.587.32-1.587 1.32C3.999 17.707 14.306 28 26.679 28c.947 0 1.32-.84 1.32-1.573v-4.6c0-.72-.6-1.32-1.32-1.32z"/></symbol><symbol id="telegram" viewBox="0 0 32 32"><path d="M32 16a15.997 15.997 0 0 1-16 16A16.003 16.003 0 0 1 0 16 16.003 16.003 0 0 1 16 0a16.003 16.003 0 0 1 16 16zm-15.426-4.188c-1.556.648-4.668 1.988-9.332 4.02-.756.3-1.154.596-1.19.884-.06.486.55.678 1.38.94l.35.11c.816.266 1.916.576 2.486.588.52.012 1.098-.2 1.736-.64 4.358-2.942 6.608-4.428 6.748-4.46.1-.024.24-.052.332.032.094.082.084.24.074.282-.06.258-2.454 2.482-3.692 3.634-.386.36-.66.614-.716.672-.123.126-.249.25-.376.372-.76.732-1.328 1.28.03 2.176.654.432 1.178.786 1.7 1.142.568.388 1.136.774 1.872 1.258.186.12.366.25.54.374.662.472 1.26.896 1.994.828.428-.04.87-.44 1.094-1.64.53-2.834 1.572-8.972 1.812-11.502.015-.21.006-.422-.026-.63a.674.674 0 0 0-.228-.434 1.047 1.047 0 0 0-.62-.186c-.6.01-1.526.332-5.968 2.18z"/></symbol><symbol id="vk" viewBox="0 0 32 32"><path d="M16 0C7.163 0 0 7.163 0 16s7.163 16 16 16 16-7.163 16-16S24.837 0 16 0zm6.153 18.052s1.415 1.397 1.763 2.045c.01.013.015.027.018.033.142.238.175.423.105.562-.117.23-.517.343-.653.353h-2.5c-.173 0-.537-.045-.977-.348-.338-.237-.672-.625-.997-1.003-.485-.563-.905-1.05-1.328-1.05a.497.497 0 0 0-.158.025c-.32.103-.73.56-.73 1.777 0 .38-.3.598-.512.598h-1.145c-.39 0-2.422-.137-4.222-2.035-2.203-2.325-4.187-6.988-4.203-7.032-.125-.302.133-.463.415-.463h2.525c.337 0 .447.205.523.387.09.212.42 1.053.962 2 .878 1.543 1.417 2.17 1.848 2.17a.498.498 0 0 0 .232-.06c.563-.313.458-2.322.433-2.738 0-.078-.002-.898-.29-1.292-.207-.285-.558-.393-.772-.433a.914.914 0 0 1 .332-.282c.387-.193 1.083-.222 1.775-.222h.385c.75.01.943.058 1.215.127.55.132.562.487.513 1.702-.015.345-.03.735-.03 1.195 0 .1-.005.207-.005.32-.017.618-.037 1.32.4 1.608a.356.356 0 0 0 .19.055c.152 0 .608 0 1.845-2.122a16.32 16.32 0 0 0 .992-2.123c.025-.043.098-.177.185-.228a.437.437 0 0 1 .207-.048h2.968c.323 0 .545.048.587.173.073.198-.013.803-1.368 2.638l-.605.798c-1.228 1.61-1.228 1.692.077 2.913z"/></symbol></defs></svg>